<svg data-v-fde0c5aa=""
	xmlns="http://www.w3.org/2000/svg" viewBox="75 125 150 50" class="iconLeft">
	<!---->
	<defs data-v-fde0c5aa="">
		<!---->
	</defs>
	<rect data-v-fde0c5aa="" fill="#FFFFFF" x="0" y="0" width="300px" height="300px" class="logo-background-square"></rect>
	<defs data-v-fde0c5aa="">
		<linearGradient data-v-fde0c5aa="" gradientTransform="rotate(25)" id="35d30bfd-4307-4f2f-a5e1-45828f2246c8" x1="0%" y1="0%" x2="100%" y2="0%">
			<stop data-v-fde0c5aa="" offset="0%" stop-color="#000000" stop-opacity="1"></stop>
			<stop data-v-fde0c5aa="" offset="100%" stop-color="#2379B2" stop-opacity="1"></stop>
		</linearGradient>
	</defs>
	<g data-v-fde0c5aa="" id="4f051343-f2ab-4cf4-a69b-81605505f9d5" fill="url(#35d30bfd-4307-4f2f-a5e1-45828f2246c8)" transform="matrix(2.696568428269902,0,0,2.696568428269902,113.03701937346635,115.9962717594858)">
		<path d="M6.37 12.77L6.37 12.77Q6.99 12.95 7.35 13.48L7.35 13.48L7.35 13.48Q7.71 14.01 7.71 14.71L7.71 14.71L7.71 14.71Q7.71 15.90 7.04 16.54L7.04 16.54L7.04 16.54Q6.37 17.18 5.11 17.18L5.11 17.18L0.98 17.18L0.98 8.43L4.65 8.43L4.65 8.43Q6.02 8.43 6.65 8.97L6.65 8.97L6.65 8.97Q7.28 9.51 7.28 10.67L7.28 10.67L7.28 10.67Q7.28 11.37 7.05 11.89L7.05 11.89L7.05 11.89Q6.82 12.40 6.37 12.68L6.37 12.68L6.37 12.77ZM5.21 10.99L5.21 10.99Q5.21 10.39 5.03 10.16L5.03 10.16L5.03 10.16Q4.84 9.94 4.35 9.94L4.35 9.94L3.08 9.94L3.08 12.03L4.34 12.03L4.34 12.03Q4.83 12.03 5.02 11.80L5.02 11.80L5.02 11.80Q5.21 11.58 5.21 10.99L5.21 10.99ZM4.70 15.67L4.70 15.67Q5.19 15.67 5.40 15.41L5.40 15.41L5.40 15.41Q5.60 15.15 5.60 14.53L5.60 14.53L5.60 14.53Q5.60 13.96 5.40 13.72L5.40 13.72L5.40 13.72Q5.21 13.48 4.72 13.48L4.72 13.48L3.08 13.48L3.08 15.67L4.70 15.67ZM11.26 15.67L11.26 15.67Q11.58 15.72 11.91 15.75L11.91 15.75L11.82 17.16L11.82 17.16Q11.14 17.35 10.58 17.35L10.58 17.35L10.58 17.35Q9.86 17.35 9.51 17.04L9.51 17.04L9.51 17.04Q9.17 16.73 9.17 16.07L9.17 16.07L9.17 8.08L11.26 7.87L11.26 15.67ZM19.49 10.18L19.49 17.18L18.47 17.18L17.93 16.48L17.93 16.48Q16.77 17.35 15.16 17.35L15.16 17.35L15.16 17.35Q14.14 17.35 13.66 16.93L13.66 16.93L13.66 16.93Q13.19 16.52 13.19 15.61L13.19 15.61L13.19 10.18L15.27 10.18L15.27 15.88L16.52 15.88L16.52 15.88Q17.01 15.88 17.21 15.74L17.21 15.74L17.21 15.74Q17.40 15.61 17.40 15.27L17.40 15.27L17.40 10.18L19.49 10.18ZM24.57 15.79L24.57 15.79Q25.63 15.79 27.02 15.44L27.02 15.44L27.29 16.90L27.29 16.90Q26.01 17.35 24.30 17.35L24.30 17.35L24.30 17.35Q23.11 17.35 22.42 17.00L22.42 17.00L22.42 17.00Q21.73 16.65 21.41 15.85L21.41 15.85L21.41 15.85Q21.10 15.05 21.10 13.68L21.10 13.68L21.10 13.68Q21.10 12.33 21.43 11.54L21.43 11.54L21.43 11.54Q21.76 10.74 22.48 10.37L22.48 10.37L22.48 10.37Q23.20 10.01 24.42 10.01L24.42 10.01L24.42 10.01Q25.62 10.01 26.27 10.21L26.27 10.21L26.27 10.21Q26.92 10.40 27.20 10.88L27.20 10.88L27.20 10.88Q27.47 11.35 27.47 12.24L27.47 12.24L27.47 12.24Q27.47 13.17 27.13 13.65L27.13 13.65L27.13 13.65Q26.78 14.13 25.91 14.32L25.91 14.32L25.91 14.32Q25.05 14.50 23.32 14.50L23.32 14.50L23.32 15.68L23.32 15.68Q23.76 15.79 24.57 15.79L24.57 15.79ZM24.39 11.58L24.39 11.58Q23.77 11.58 23.55 11.73L23.55 11.73L23.55 11.73Q23.32 11.87 23.32 12.26L23.32 12.26L23.32 13.36L24.51 13.36L24.51 13.36Q25.13 13.36 25.36 13.21L25.36 13.21L25.36 13.21Q25.59 13.06 25.59 12.66L25.59 12.66L25.59 11.58L24.39 11.58ZM29.01 17.18L29.57 8.43L32.27 8.43L33.81 13.94L33.91 13.94L35.43 8.43L38.14 8.43L38.70 17.18L36.62 17.18L36.29 11.58L36.19 11.58L34.66 17.18L33.04 17.18L31.50 11.58L31.42 11.58L31.08 17.18L29.01 17.18ZM43.44 10.01L43.44 10.01Q44.98 10.01 45.65 10.52L45.65 10.52L45.65 10.52Q46.33 11.03 46.33 12.21L46.33 12.21L46.33 17.18L45.32 17.18L44.77 16.48L44.77 16.48Q43.74 17.35 42.34 17.35L42.34 17.35L42.34 17.35Q41.12 17.35 40.58 16.82L40.58 16.82L40.58 16.82Q40.04 16.30 40.04 15.12L40.04 15.12L40.04 15.12Q40.04 14.18 40.36 13.71L40.36 13.71L40.36 13.71Q40.68 13.23 41.50 13.04L41.50 13.04L41.50 13.04Q42.31 12.85 43.93 12.85L43.93 12.85L44.24 12.85L44.24 11.68L44.24 11.68Q43.89 11.56 43.18 11.56L43.18 11.56L43.18 11.56Q41.97 11.56 40.61 11.91L40.61 11.91L40.35 10.46L40.35 10.46Q41.01 10.23 41.81 10.12L41.81 10.12L41.81 10.12Q42.62 10.01 43.44 10.01L43.44 10.01ZM43.19 15.88L43.19 15.88Q43.79 15.88 44.02 15.74L44.02 15.74L44.02 15.74Q44.24 15.60 44.24 15.20L44.24 15.20L44.24 14L43.01 14L43.01 14Q42.39 14 42.18 14.15L42.18 14.15L42.18 14.15Q41.96 14.29 41.96 14.70L41.96 14.70L41.96 15.88L43.19 15.88ZM54.50 17.18L52.22 17.18L50.88 15.18L49.69 17.18L47.46 17.18L49.76 13.54L47.49 10.18L49.77 10.18L51.09 12.14L52.25 10.18L54.47 10.18L52.21 13.78L54.50 17.18Z"></path>
	</g>
	<defs data-v-fde0c5aa="">
		<linearGradient data-v-fde0c5aa="" gradientTransform="rotate(25)" id="b917c3a1-30c0-40d5-a36d-f2604a6cbc74" x1="0%" y1="0%" x2="100%" y2="0%">
			<stop data-v-fde0c5aa="" offset="0%" stop-color="#00A3DD" stop-opacity="1"></stop>
			<stop data-v-fde0c5aa="" offset="100%" stop-color="#00A3DD" stop-opacity="1"></stop>
		</linearGradient>
	</defs>
	<g data-v-fde0c5aa="" id="6f6e376f-7034-4533-8f52-93eb5d0a146c" stroke="none" fill="url(#b917c3a1-30c0-40d5-a36d-f2604a6cbc74)" transform="matrix(0.7374077895362208,0,0,0.7374077895362208,33.80577414594762,112.76090662842086)">
		<path d="M25.9 30.2c0 .8.2 1.7.7 2.5.6 1 .9 1.7 1 2.2-1.2-.5-3.1-1-5.7-1.7s-4.5-1.3-5.7-1.7c-4.2-1.6-6.8-3.9-7.8-7 2.2.7 5.1 1.6 8.8 2.8 4.3 1.5 7.2 2.4 8.7 2.9zm3.4 6.7c.1.7.6 1.6 1.3 2.6.8 1 1.2 1.8 1.4 2.5-.6-.2-2.3-.7-5.2-1.6-2.1-.7-3.8-1.2-5.1-1.8-3.7-1.6-6.1-3.7-7.2-6.4 1.8.2 4.2.9 7.3 2 3.8 1.5 6.3 2.4 7.5 2.7zM22.6 40c7.3 1.3 12 3.9 14.1 7.7-3.9-.8-6.7-1.5-8.3-2.2-3.2-1.3-5.2-3.2-5.8-5.5zm42.6 5.7c.3.2.1.8-.8 1.8-.8.8-1.5 1.4-2.2 1.9-4.7 3.1-8.8 4.6-12.1 4.4-4.6-.3-9.2-3-13.8-8.1.6 0 1.4.2 2.5.5 1 .3 1.9.5 2.6.5-3.1-1.1-5.2-2.1-6.4-2.8-2-1.4-3.3-3.2-3.7-5.6.7 0 1.4.2 2.4.7.9.4 1.7.7 2.3.7-2.8-1.2-4.9-2.4-6.2-3.6-1.9-1.7-2.9-3.9-3.3-6.5 1.8.8 4.4 1.8 7.7 2.9 3.9 1.3 6.5 2.3 7.8 2.8 1.9 5.1 4.8 9 8.7 11.8 4.3-2.8 7.2-6.8 8.7-11.8.8-.3 3.4-1.2 7.9-2.7 3.2-1.1 5.8-2.1 7.6-3 0 2.4-.9 4.5-2.7 6.3-1.7 1.8-3.8 2.9-6.4 3.4.5.3 1.2.2 2.2-.3 1.1-.5 2-.8 2.6-.7-1.1 4.4-4.5 7.1-10.1 8.1.6.4 1.3.4 2.3 0 1.3-.5 2.1-.7 2.4-.7zm-21.8 9.4c.4.1.8.6 1.2 1.5.4.9.8 1.4 1.2 1.5-3.1 6.5-4.7 10-5 10.8-.7-.2-1.3-.6-1.9-1.4-.8-.9-1.3-1.5-1.5-1.7.6-1.3 1.6-3.1 3-5.4 1.4-2.3 2.4-4 3-5.3zm2.7 4c.3.2.7.6 1.2 1.2s.9 1 1.2 1.2c-1.8 7.2-2.8 11.1-3 11.8-.7-.2-1.4-.6-2.2-1.4-.9-.9-1.6-1.5-1.9-1.7.1-.2 1.6-3.9 4.7-11.1zm5 2.7c-2.6-1.4-5.3-4.7-8.1-9.7 2.4 1.1 5 1.7 7.6 1.8 3.1.1 5.7-.6 7.9-2.2-1.2 3.1-3.6 6.4-7.4 10.1zm-3.7-20.2c-.6.1-1 0-1.4-.3-.6-.5-.9-.7-.9-.8.6-.9 1.1-2.6 1.4-5 0-.2-.2-.3-.5-.3h-.8c.6-2.4 2-4.2 4.3-5.4 2.4-1.2 4.9-1.2 7.5 0 .2 1.5-.1 2.8-1 3.7-.4 0-.9-.1-1.4-.4-.4-.2-.8-.2-1.3.1.1.5.3 1.2.4 2.1.1 1 .3 1.7.4 2.1.4 1.6 1.3 2.4 2.5 2.5 0 .8-.7 1.3-2 1.4-.4 0-.4.2 0 .5.5.3.7.5.7.5 0 .4-.6 1.1-1.9 2.3-1.2 1.1-1.9 1.7-2.1 1.8-.8 0-1.7-.5-2.6-1.7-1.1-1.2-1.4-2.2-1.3-3.1zm1.7 20.5c.8.5 1.3.7 1.7.7a55414863459046760 55414863459046760 0 0 1 4.4 11c-.2.3-1.5 1.2-4 2.7-.7-.2-1.4-.5-2.3-.9-1.1-.6-1.8-.9-2.1-1.1.1-1.7.5-3.8 1.1-6.3.6-2.8 1-4.8 1.2-6.1zm4-31.9c-.7 1.2-1.1 2.1-1.2 2.6-.4 1.1-.2 1.6.5 1.5-.4-.4-.3-1.1.2-2.2s.7-1.7.5-1.9zm0 31.6c.1-.4.4-.9 1-1.4.6-.5.9-.9 1-1.3.8 1.1 1.6 2.9 2.6 5.3 1 2.7 1.9 4.5 2.4 5.4-1.2 1.8-2.5 2.9-4.1 3.4-.3-1.5-.8-3.4-1.5-5.7-.6-2.9-1.1-4.8-1.4-5.7zm3-3.4c0-.6.3-1.2.8-1.8.5-.6.8-1.2.9-1.6.9 1.2 2 2.9 3.3 5.1 1.7 3 2.8 4.7 3.1 5.3.1-.3-.8.9-2.7 3.4.2.2-1.6-3.3-5.4-10.4zM65.6 48c0-.4.5-1.1 1.4-2.3.9-1.2 1.5-2.1 1.7-2.8 1.3-.2 3-.7 5.3-1.5 2.2-.8 4-1.3 5.4-1.5-.7 2.3-2.6 4.1-5.6 5.3-.9.4-2.2.8-4.1 1.4-1.9.6-3.3 1.1-4.1 1.4zm4.7-6c.3-2.8 2.4-5 6.4-6.6 1-.4 2.8-1 5.3-1.8 2.3-.7 4-1.2 5-1.8-.8 3-3 5.2-6.7 6.7-1 .4-2.7 1-5 1.7s-4 1.3-5 1.8zm6-12.1c2.1-.5 5-1.4 8.6-2.6 3.8-1.3 6.7-2.3 8.5-2.7-1.1 3-3.8 5.4-8 7-1.3.5-3.2 1.1-5.7 1.8-2.8.6-4.7 1.2-5.7 1.5.5-.7 1.3-2.4 2.3-5z"></path>
	</g>
	<!---->
</svg>