<svg data-v-fde0c5aa="" xmlns="http://www.w3.org/2000/svg" viewBox="0 0 300 300" class="iconLeftSlogan">
	<!--  -->
	<defs data-v-fde0c5aa="">
		<!--  -->
	</defs>
	<rect data-v-fde0c5aa="" fill="#FFFFFF" x="0" y="0" width="300px" height="300px" class="logo-background-square">
	</rect>
	<defs data-v-fde0c5aa="">
		<linearGradient data-v-fde0c5aa="" gradientTransform="rotate(25)" id="2524c41d-a31a-4f70-81b6-4dfa6259ce93" x1="0%" y1="0%" x2="100%" y2="0%">
			<stop data-v-fde0c5aa="" offset="0%" stop-color="#000000" stop-opacity="1">
			</stop>
			<stop data-v-fde0c5aa="" offset="100%" stop-color="#00a3dd" stop-opacity="1">
			</stop>
		</linearGradient>
	</defs>
	<g data-v-fde0c5aa="" id="6847605f-cbe6-4b20-bd4f-032a519a2723" fill="url(#2524c41d-a31a-4f70-81b6-4dfa6259ce93)" transform="matrix(2.2899835262556505,0,0,2.2899835262556505,135.1958967271178,111.12330742817045)">
		<path d="M6.37 12.77L6.37 12.77Q6.99 12.95 7.35 13.48L7.35 13.48L7.35 13.48Q7.71 14.01 7.71 14.71L7.71 14.71L7.71 14.71Q7.71 15.90 7.04 16.54L7.04 16.54L7.04 16.54Q6.37 17.18 5.11 17.18L5.11 17.18L0.98 17.18L0.98 8.43L4.65 8.43L4.65 8.43Q6.02 8.43 6.65 8.97L6.65 8.97L6.65 8.97Q7.28 9.51 7.28 10.67L7.28 10.67L7.28 10.67Q7.28 11.37 7.05 11.89L7.05 11.89L7.05 11.89Q6.82 12.40 6.37 12.68L6.37 12.68L6.37 12.77ZM5.21 10.99L5.21 10.99Q5.21 10.39 5.03 10.16L5.03 10.16L5.03 10.16Q4.84 9.94 4.35 9.94L4.35 9.94L3.08 9.94L3.08 12.03L4.34 12.03L4.34 12.03Q4.83 12.03 5.02 11.80L5.02 11.80L5.02 11.80Q5.21 11.58 5.21 10.99L5.21 10.99ZM4.70 15.67L4.70 15.67Q5.19 15.67 5.40 15.41L5.40 15.41L5.40 15.41Q5.60 15.15 5.60 14.53L5.60 14.53L5.60 14.53Q5.60 13.96 5.40 13.72L5.40 13.72L5.40 13.72Q5.21 13.48 4.72 13.48L4.72 13.48L3.08 13.48L3.08 15.67L4.70 15.67ZM11.26 15.67L11.26 15.67Q11.58 15.72 11.91 15.75L11.91 15.75L11.82 17.16L11.82 17.16Q11.14 17.35 10.58 17.35L10.58 17.35L10.58 17.35Q9.86 17.35 9.51 17.04L9.51 17.04L9.51 17.04Q9.17 16.73 9.17 16.07L9.17 16.07L9.17 8.08L11.26 7.87L11.26 15.67ZM19.49 10.18L19.49 17.18L18.47 17.18L17.93 16.48L17.93 16.48Q16.77 17.35 15.16 17.35L15.16 17.35L15.16 17.35Q14.14 17.35 13.66 16.93L13.66 16.93L13.66 16.93Q13.19 16.52 13.19 15.61L13.19 15.61L13.19 10.18L15.27 10.18L15.27 15.88L16.52 15.88L16.52 15.88Q17.01 15.88 17.21 15.74L17.21 15.74L17.21 15.74Q17.40 15.61 17.40 15.27L17.40 15.27L17.40 10.18L19.49 10.18ZM24.57 15.79L24.57 15.79Q25.63 15.79 27.02 15.44L27.02 15.44L27.29 16.90L27.29 16.90Q26.01 17.35 24.30 17.35L24.30 17.35L24.30 17.35Q23.11 17.35 22.42 17.00L22.42 17.00L22.42 17.00Q21.73 16.65 21.41 15.85L21.41 15.85L21.41 15.85Q21.10 15.05 21.10 13.68L21.10 13.68L21.10 13.68Q21.10 12.33 21.43 11.54L21.43 11.54L21.43 11.54Q21.76 10.74 22.48 10.37L22.48 10.37L22.48 10.37Q23.20 10.01 24.42 10.01L24.42 10.01L24.42 10.01Q25.62 10.01 26.27 10.21L26.27 10.21L26.27 10.21Q26.92 10.40 27.20 10.88L27.20 10.88L27.20 10.88Q27.47 11.35 27.47 12.24L27.47 12.24L27.47 12.24Q27.47 13.17 27.13 13.65L27.13 13.65L27.13 13.65Q26.78 14.13 25.91 14.32L25.91 14.32L25.91 14.32Q25.05 14.50 23.32 14.50L23.32 14.50L23.32 15.68L23.32 15.68Q23.76 15.79 24.57 15.79L24.57 15.79ZM24.39 11.58L24.39 11.58Q23.77 11.58 23.55 11.73L23.55 11.73L23.55 11.73Q23.32 11.87 23.32 12.26L23.32 12.26L23.32 13.36L24.51 13.36L24.51 13.36Q25.13 13.36 25.36 13.21L25.36 13.21L25.36 13.21Q25.59 13.06 25.59 12.66L25.59 12.66L25.59 11.58L24.39 11.58ZM29.01 17.18L29.57 8.43L32.27 8.43L33.81 13.94L33.91 13.94L35.43 8.43L38.14 8.43L38.70 17.18L36.62 17.18L36.29 11.58L36.19 11.58L34.66 17.18L33.04 17.18L31.50 11.58L31.42 11.58L31.08 17.18L29.01 17.18ZM43.44 10.01L43.44 10.01Q44.98 10.01 45.65 10.52L45.65 10.52L45.65 10.52Q46.33 11.03 46.33 12.21L46.33 12.21L46.33 17.18L45.32 17.18L44.77 16.48L44.77 16.48Q43.74 17.35 42.34 17.35L42.34 17.35L42.34 17.35Q41.12 17.35 40.58 16.82L40.58 16.82L40.58 16.82Q40.04 16.30 40.04 15.12L40.04 15.12L40.04 15.12Q40.04 14.18 40.36 13.71L40.36 13.71L40.36 13.71Q40.68 13.23 41.50 13.04L41.50 13.04L41.50 13.04Q42.31 12.85 43.93 12.85L43.93 12.85L44.24 12.85L44.24 11.68L44.24 11.68Q43.89 11.56 43.18 11.56L43.18 11.56L43.18 11.56Q41.97 11.56 40.61 11.91L40.61 11.91L40.35 10.46L40.35 10.46Q41.01 10.23 41.81 10.12L41.81 10.12L41.81 10.12Q42.62 10.01 43.44 10.01L43.44 10.01ZM43.19 15.88L43.19 15.88Q43.79 15.88 44.02 15.74L44.02 15.74L44.02 15.74Q44.24 15.60 44.24 15.20L44.24 15.20L44.24 14L43.01 14L43.01 14Q42.39 14 42.18 14.15L42.18 14.15L42.18 14.15Q41.96 14.29 41.96 14.70L41.96 14.70L41.96 15.88L43.19 15.88ZM54.50 17.18L52.22 17.18L50.88 15.18L49.69 17.18L47.46 17.18L49.76 13.54L47.49 10.18L49.77 10.18L51.09 12.14L52.25 10.18L54.47 10.18L52.21 13.78L54.50 17.18Z">
		</path>
	</g>
	<defs data-v-fde0c5aa="">
		<!--  -->
	</defs>
	<g data-v-fde0c5aa="" id="f325b6ef-e92c-450c-8377-77a88e050ab0" stroke="none" fill="#00a3dd" transform="matrix(0.9934128024195826,0,0,0.9934128024195826,31.65533189124014,99.83265347781108)">
		<path d="M25.9 30.2c0 .8.2 1.7.7 2.5.6 1 .9 1.7 1 2.2-1.2-.5-3.1-1-5.7-1.7s-4.5-1.3-5.7-1.7c-4.2-1.6-6.8-3.9-7.8-7 2.2.7 5.1 1.6 8.8 2.8 4.3 1.5 7.2 2.4 8.7 2.9zm3.4 6.7c.1.7.6 1.6 1.3 2.6.8 1 1.2 1.8 1.4 2.5-.6-.2-2.3-.7-5.2-1.6-2.1-.7-3.8-1.2-5.1-1.8-3.7-1.6-6.1-3.7-7.2-6.4 1.8.2 4.2.9 7.3 2 3.8 1.5 6.3 2.4 7.5 2.7zM22.6 40c7.3 1.3 12 3.9 14.1 7.7-3.9-.8-6.7-1.5-8.3-2.2-3.2-1.3-5.2-3.2-5.8-5.5zm42.6 5.7c.3.2.1.8-.8 1.8-.8.8-1.5 1.4-2.2 1.9-4.7 3.1-8.8 4.6-12.1 4.4-4.6-.3-9.2-3-13.8-8.1.6 0 1.4.2 2.5.5 1 .3 1.9.5 2.6.5-3.1-1.1-5.2-2.1-6.4-2.8-2-1.4-3.3-3.2-3.7-5.6.7 0 1.4.2 2.4.7.9.4 1.7.7 2.3.7-2.8-1.2-4.9-2.4-6.2-3.6-1.9-1.7-2.9-3.9-3.3-6.5 1.8.8 4.4 1.8 7.7 2.9 3.9 1.3 6.5 2.3 7.8 2.8 1.9 5.1 4.8 9 8.7 11.8 4.3-2.8 7.2-6.8 8.7-11.8.8-.3 3.4-1.2 7.9-2.7 3.2-1.1 5.8-2.1 7.6-3 0 2.4-.9 4.5-2.7 6.3-1.7 1.8-3.8 2.9-6.4 3.4.5.3 1.2.2 2.2-.3 1.1-.5 2-.8 2.6-.7-1.1 4.4-4.5 7.1-10.1 8.1.6.4 1.3.4 2.3 0 1.3-.5 2.1-.7 2.4-.7zm-21.8 9.4c.4.1.8.6 1.2 1.5.4.9.8 1.4 1.2 1.5-3.1 6.5-4.7 10-5 10.8-.7-.2-1.3-.6-1.9-1.4-.8-.9-1.3-1.5-1.5-1.7.6-1.3 1.6-3.1 3-5.4 1.4-2.3 2.4-4 3-5.3zm2.7 4c.3.2.7.6 1.2 1.2s.9 1 1.2 1.2c-1.8 7.2-2.8 11.1-3 11.8-.7-.2-1.4-.6-2.2-1.4-.9-.9-1.6-1.5-1.9-1.7.1-.2 1.6-3.9 4.7-11.1zm5 2.7c-2.6-1.4-5.3-4.7-8.1-9.7 2.4 1.1 5 1.7 7.6 1.8 3.1.1 5.7-.6 7.9-2.2-1.2 3.1-3.6 6.4-7.4 10.1zm-3.7-20.2c-.6.1-1 0-1.4-.3-.6-.5-.9-.7-.9-.8.6-.9 1.1-2.6 1.4-5 0-.2-.2-.3-.5-.3h-.8c.6-2.4 2-4.2 4.3-5.4 2.4-1.2 4.9-1.2 7.5 0 .2 1.5-.1 2.8-1 3.7-.4 0-.9-.1-1.4-.4-.4-.2-.8-.2-1.3.1.1.5.3 1.2.4 2.1.1 1 .3 1.7.4 2.1.4 1.6 1.3 2.4 2.5 2.5 0 .8-.7 1.3-2 1.4-.4 0-.4.2 0 .5.5.3.7.5.7.5 0 .4-.6 1.1-1.9 2.3-1.2 1.1-1.9 1.7-2.1 1.8-.8 0-1.7-.5-2.6-1.7-1.1-1.2-1.4-2.2-1.3-3.1zm1.7 20.5c.8.5 1.3.7 1.7.7a55414863459046760 55414863459046760 0 0 1 4.4 11c-.2.3-1.5 1.2-4 2.7-.7-.2-1.4-.5-2.3-.9-1.1-.6-1.8-.9-2.1-1.1.1-1.7.5-3.8 1.1-6.3.6-2.8 1-4.8 1.2-6.1zm4-31.9c-.7 1.2-1.1 2.1-1.2 2.6-.4 1.1-.2 1.6.5 1.5-.4-.4-.3-1.1.2-2.2s.7-1.7.5-1.9zm0 31.6c.1-.4.4-.9 1-1.4.6-.5.9-.9 1-1.3.8 1.1 1.6 2.9 2.6 5.3 1 2.7 1.9 4.5 2.4 5.4-1.2 1.8-2.5 2.9-4.1 3.4-.3-1.5-.8-3.4-1.5-5.7-.6-2.9-1.1-4.8-1.4-5.7zm3-3.4c0-.6.3-1.2.8-1.8.5-.6.8-1.2.9-1.6.9 1.2 2 2.9 3.3 5.1 1.7 3 2.8 4.7 3.1 5.3.1-.3-.8.9-2.7 3.4.2.2-1.6-3.3-5.4-10.4zM65.6 48c0-.4.5-1.1 1.4-2.3.9-1.2 1.5-2.1 1.7-2.8 1.3-.2 3-.7 5.3-1.5 2.2-.8 4-1.3 5.4-1.5-.7 2.3-2.6 4.1-5.6 5.3-.9.4-2.2.8-4.1 1.4-1.9.6-3.3 1.1-4.1 1.4zm4.7-6c.3-2.8 2.4-5 6.4-6.6 1-.4 2.8-1 5.3-1.8 2.3-.7 4-1.2 5-1.8-.8 3-3 5.2-6.7 6.7-1 .4-2.7 1-5 1.7s-4 1.3-5 1.8zm6-12.1c2.1-.5 5-1.4 8.6-2.6 3.8-1.3 6.7-2.3 8.5-2.7-1.1 3-3.8 5.4-8 7-1.3.5-3.2 1.1-5.7 1.8-2.8.6-4.7 1.2-5.7 1.5.5-.7 1.3-2.4 2.3-5z">
		</path>
	</g>
	<defs data-v-fde0c5aa="">
		<!--  -->
	</defs>
	<g data-v-fde0c5aa="" id="7cba6066-7d45-4d2d-8441-da4e77e8b90e" fill="#00a3dd" transform="matrix(0.5148711259882794,0,0,0.5148711259882794,136.77074818729253,159.03702742225735)">
		<path d="M2.66 16.24L2.66 16.24L2.66 16.24Q1.86 16.00 1.58 15.79L1.58 15.79L1.58 15.79Q1.30 15.57 1.30 15.19L1.30 15.19L1.30 15.19Q1.30 14.77 1.50 14.01L1.50 14.01L1.50 14.01Q1.69 13.24 2.01 12.31L2.01 12.31L2.01 12.31Q2.32 11.37 2.73 10.35L2.73 10.35L2.73 10.35Q3.14 9.32 3.56 8.39L3.56 8.39L3.56 8.39Q3.98 7.45 4.38 6.67L4.38 6.67L4.38 6.67Q4.77 5.89 5.08 5.46L5.08 5.46L4.98 4.87L4.98 4.87Q5.18 4.87 5.53 4.97L5.53 4.97L5.53 4.97Q5.88 5.07 6.24 5.21L6.24 5.21L6.24 5.21Q6.59 5.35 6.87 5.49L6.87 5.49L6.87 5.49Q7.14 5.64 7.17 5.74L7.17 5.74L7.17 5.74Q7.10 6.08 7.06 6.76L7.06 6.76L7.06 6.76Q7.01 7.43 7.01 8.20L7.01 8.20L7.01 8.20Q7.01 9.73 7.13 11.19L7.13 11.19L7.13 11.19Q7.25 12.66 7.69 14.17L7.69 14.17L7.69 14.17Q7.91 13.05 8.17 11.94L8.17 11.94L8.17 11.94Q8.43 10.82 8.71 9.81L8.71 9.81L8.71 9.81Q8.99 8.79 9.27 7.92L9.27 7.92L9.27 7.92Q9.55 7.06 9.81 6.40L9.81 6.40L9.81 6.40Q10.07 5.75 10.29 5.38L10.29 5.38L10.29 5.38Q10.51 5.01 10.70 4.98L10.70 4.98L10.70 4.98Q10.85 5.01 11.03 5.10L11.03 5.10L11.03 5.10Q11.21 5.19 11.38 5.32L11.38 5.32L11.38 5.32Q11.55 5.45 11.69 5.60L11.69 5.60L11.69 5.60Q11.83 5.75 11.91 5.91L11.91 5.91L11.91 5.91Q11.47 6.09 11.03 6.76L11.03 6.76L11.03 6.76Q10.58 7.43 10.19 8.39L10.19 8.39L10.19 8.39Q9.79 9.35 9.44 10.47L9.44 10.47L9.44 10.47Q9.10 11.59 8.84 12.68L8.84 12.68L8.84 12.68Q8.58 13.76 8.44 14.69L8.44 14.69L8.44 14.69Q8.29 15.61 8.27 16.17L8.27 16.17L8.27 16.17Q8.27 16.20 8.29 16.21L8.29 16.21L8.29 16.21Q8.25 16.23 8.20 16.23L8.20 16.23L8.20 16.23Q8.15 16.23 8.11 16.23L8.11 16.23L8.11 16.23Q7.46 16.23 6.96 16.07L6.96 16.07L6.96 16.07Q6.47 15.90 6.31 15.61L6.31 15.61L6.31 15.61Q6.02 14.43 5.82 13.34L5.82 13.34L5.82 13.34Q5.63 12.25 5.50 11.16L5.50 11.16L5.50 11.16Q5.36 10.07 5.29 8.95L5.29 8.95L5.29 8.95Q5.21 7.84 5.17 6.62L5.17 6.62L5.17 6.62Q4.90 7.04 4.61 7.72L4.61 7.72L4.61 7.72Q4.31 8.40 4.03 9.21L4.03 9.21L4.03 9.21Q3.75 10.02 3.49 10.92L3.49 10.92L3.49 10.92Q3.23 11.82 3.04 12.67L3.04 12.67L3.04 12.67Q2.84 13.52 2.73 14.29L2.73 14.29L2.73 14.29Q2.62 15.05 2.62 15.61L2.62 15.61L2.62 15.61Q2.62 15.90 2.63 16.03L2.63 16.03L2.63 16.03Q2.63 16.16 2.66 16.24ZM24.43 4.98L24.43 4.98L24.43 4.98Q24.70 5.10 24.98 5.27L24.98 5.27L24.98 5.27Q25.26 5.45 25.49 5.63L25.49 5.63L25.49 5.63Q25.73 5.81 25.89 5.98L25.89 5.98L25.89 5.98Q26.05 6.16 26.07 6.27L26.07 6.27L26.07 6.27Q25.83 6.22 25.59 6.20L25.59 6.20L25.59 6.20Q25.35 6.17 25.16 6.17L25.16 6.17L25.16 6.17Q24.53 6.17 23.90 6.48L23.90 6.48L23.90 6.48Q23.28 6.79 22.72 7.32L22.72 7.32L22.72 7.32Q22.16 7.85 21.69 8.57L21.69 8.57L21.69 8.57Q21.21 9.28 20.87 10.09L20.87 10.09L20.87 10.09Q20.52 10.91 20.33 11.77L20.33 11.77L20.33 11.77Q20.13 12.64 20.13 13.48L20.13 13.48L20.13 13.48Q20.13 14.57 20.50 15.11L20.50 15.11L20.50 15.11Q20.86 15.64 21.56 15.64L21.56 15.64L21.56 15.64Q21.90 15.64 22.29 15.51L22.29 15.51L22.29 15.51Q22.68 15.37 23.09 15.13L23.09 15.13L23.09 15.13Q23.49 14.90 23.88 14.56L23.88 14.56L23.88 14.56Q24.28 14.22 24.61 13.82L24.61 13.82L24.61 13.82Q25.10 13.23 25.49 12.48L25.49 12.48L25.49 12.48Q25.89 11.73 26.16 10.89L26.16 10.89L26.16 10.89Q26.43 10.05 26.58 9.16L26.58 9.16L26.58 9.16Q26.73 8.27 26.73 7.42L26.73 7.42L26.73 7.42Q26.73 7.08 26.71 6.85L26.71 6.85L26.71 6.85Q26.70 6.62 26.68 6.46L26.68 6.46L26.68 6.46Q26.66 6.30 26.64 6.20L26.64 6.20L26.64 6.20Q26.63 6.10 26.61 6.03L26.61 6.03L26.61 6.03Q26.78 6.12 26.98 6.24L26.98 6.24L26.98 6.24Q27.19 6.36 27.36 6.59L27.36 6.59L27.36 6.59Q27.54 6.82 27.66 7.20L27.66 7.20L27.66 7.20Q27.78 7.57 27.78 8.18L27.78 8.18L27.78 8.18Q27.78 9.16 27.54 10.10L27.54 10.10L27.54 10.10Q27.31 11.05 26.90 11.90L26.90 11.90L26.90 11.90Q26.49 12.75 25.93 13.50L25.93 13.50L25.93 13.50Q25.37 14.24 24.72 14.80L24.72 14.80L24.72 14.80Q23.88 15.54 22.93 15.95L22.93 15.95L22.93 15.95Q21.98 16.35 21.10 16.35L21.10 16.35L21.10 16.35Q19.81 16.35 19.13 15.53L19.13 15.53L19.13 15.53Q18.45 14.71 18.45 13.12L18.45 13.12L18.45 13.12Q18.45 12.26 18.64 11.31L18.64 11.31L18.64 11.31Q18.83 10.36 19.17 9.44L19.17 9.44L19.17 9.44Q19.52 8.51 19.99 7.68L19.99 7.68L19.99 7.68Q20.47 6.85 21.03 6.21L21.03 6.21L21.03 6.21Q21.60 5.57 22.25 5.19L22.25 5.19L22.25 5.19Q22.90 4.82 23.59 4.82L23.59 4.82L23.59 4.82Q23.81 4.82 24.01 4.85L24.01 4.85L24.01 4.85Q24.21 4.89 24.43 4.98ZM36.04 14.45L36.04 14.45L36.04 14.45Q36.25 13.99 36.54 13.26L36.54 13.26L36.54 13.26Q36.83 12.53 37.16 11.68L37.16 11.68L37.16 11.68Q37.48 10.84 37.81 9.95L37.81 9.95L37.81 9.95Q38.15 9.06 38.44 8.26L38.44 8.26L38.44 8.26Q38.74 7.46 38.95 6.83L38.95 6.83L38.95 6.83Q39.17 6.20 39.27 5.87L39.27 5.87L39.27 5.87Q38.39 6.23 37.76 6.97L37.76 6.97L37.76 6.97Q37.13 7.71 36.81 8.83L36.81 8.83L36.81 8.83Q36.48 8.72 36.22 8.43L36.22 8.43L36.22 8.43Q35.95 8.15 35.87 7.71L35.87 7.71L35.87 7.71Q36.01 7.07 36.39 6.54L36.39 6.54L36.39 6.54Q36.78 6.01 37.37 5.63L37.37 5.63L37.37 5.63Q37.95 5.25 38.72 5.05L38.72 5.05L38.72 5.05Q39.49 4.84 40.38 4.84L40.38 4.84L40.38 4.84Q41.50 4.84 42.43 5.17L42.43 5.17L42.43 5.17Q43.37 5.50 44.04 6.09L44.04 6.09L44.04 6.09Q44.72 6.68 45.09 7.50L45.09 7.50L45.09 7.50Q45.47 8.33 45.47 9.34L45.47 9.34L45.47 9.34Q45.47 10.71 44.97 11.96L44.97 11.96L44.97 11.96Q44.46 13.20 43.60 14.15L43.60 14.15L43.60 14.15Q42.74 15.11 41.61 15.67L41.61 15.67L41.61 15.67Q40.47 16.24 39.23 16.24L39.23 16.24L39.23 16.24Q38.08 16.24 37.26 15.79L37.26 15.79L37.26 15.79Q36.44 15.33 36.04 14.45ZM40.98 5.54L40.98 5.54L40.98 5.54Q40.28 5.54 39.65 5.74L39.65 5.74L39.65 5.74Q40.26 5.96 40.67 6.21L40.67 6.21L40.67 6.21Q41.08 6.45 41.23 6.59L41.23 6.59L41.23 6.59Q41.12 6.75 40.90 7.14L40.90 7.14L40.90 7.14Q40.68 7.53 40.40 8.09L40.40 8.09L40.40 8.09Q40.11 8.65 39.79 9.32L39.79 9.32L39.79 9.32Q39.47 9.98 39.16 10.68L39.16 10.68L39.16 10.68Q38.36 12.46 38.00 13.48L38.00 13.48L38.00 13.48Q37.65 14.50 37.65 14.90L37.65 14.90L37.65 14.90Q37.84 14.97 38.12 14.99L38.12 14.99L38.12 14.99Q38.40 15.02 38.72 15.02L38.72 15.02L38.72 15.02Q39.86 15.02 40.87 14.50L40.87 14.50L40.87 14.50Q41.89 13.97 42.65 13.09L42.65 13.09L42.65 13.09Q43.41 12.21 43.85 11.04L43.85 11.04L43.85 11.04Q44.30 9.87 44.30 8.58L44.30 8.58L44.30 8.58Q44.30 7.14 43.40 6.34L43.40 6.34L43.40 6.34Q42.50 5.54 40.98 5.54ZM58.77 9.21L58.77 9.21L58.77 9.21Q59.23 9.21 59.49 9.46L59.49 9.46L59.49 9.46Q59.75 9.72 59.75 10.16L59.75 10.16L59.75 10.16Q59.75 10.28 59.73 10.39L59.73 10.39L59.73 10.39Q59.71 10.51 59.68 10.60L59.68 10.60L59.68 10.60Q59.50 10.57 59.28 10.55L59.28 10.55L59.28 10.55Q59.05 10.53 58.74 10.53L58.74 10.53L58.74 10.53Q58.14 10.53 57.53 10.63L57.53 10.63L57.53 10.63Q56.91 10.74 56.35 10.81L56.35 10.81L56.35 10.81Q56.03 11.55 55.76 12.24L55.76 12.24L55.76 12.24Q55.50 12.94 55.31 13.51L55.31 13.51L55.31 13.51Q55.12 14.08 55.01 14.50L55.01 14.50L55.01 14.50Q54.91 14.92 54.89 15.13L54.89 15.13L54.89 15.13Q56.03 14.90 57.18 14.73L57.18 14.73L57.18 14.73Q58.34 14.56 59.61 14.48L59.61 14.48L59.61 14.48Q59.77 14.71 59.87 14.99L59.87 14.99L59.87 14.99Q59.98 15.27 59.98 15.60L59.98 15.60L59.98 15.60Q59.98 15.68 59.98 15.78L59.98 15.78L59.98 15.78Q59.98 15.88 59.95 15.97L59.95 15.97L59.95 15.97Q59.56 15.96 59.12 15.95L59.12 15.95L59.12 15.95Q58.69 15.95 57.99 15.95L57.99 15.95L57.99 15.95Q57.53 15.95 57.11 15.97L57.11 15.97L57.11 15.97Q56.70 15.99 56.28 16.03L56.28 16.03L56.28 16.03Q55.86 16.07 55.39 16.14L55.39 16.14L55.39 16.14Q54.92 16.21 54.33 16.31L54.33 16.31L54.33 16.31Q53.69 16.06 53.09 15.08L53.09 15.08L53.09 15.08Q53.33 14.57 53.75 13.54L53.75 13.54L53.75 13.54Q54.18 12.52 54.84 10.79L54.84 10.79L54.84 10.79Q54.21 10.60 54.01 10.09L54.01 10.09L54.01 10.09Q54.08 10.02 54.42 9.92L54.42 9.92L54.42 9.92Q54.75 9.81 55.24 9.70L55.24 9.70L55.24 9.70Q55.45 9.16 55.60 8.75L55.60 8.75L55.60 8.75Q55.75 8.34 55.86 7.99L55.86 7.99L55.86 7.99Q55.97 7.63 56.06 7.29L56.06 7.29L56.06 7.29Q56.15 6.94 56.24 6.54L56.24 6.54L56.24 6.54Q55.75 6.51 55.47 6.27L55.47 6.27L55.47 6.27Q55.19 6.02 55.19 5.63L55.19 5.63L55.19 5.63Q55.19 5.52 55.22 5.36L55.22 5.36L55.22 5.36Q55.26 5.21 55.30 5.10L55.30 5.10L55.30 5.10Q55.58 5.14 55.84 5.15L55.84 5.15L55.84 5.15Q56.10 5.17 56.52 5.17L56.52 5.17L56.52 5.17Q57.40 5.17 58.17 5.12L58.17 5.12L58.17 5.12Q58.94 5.07 59.56 5.01L59.56 5.01L59.56 5.01Q60.19 4.96 60.63 4.91L60.63 4.91L60.63 4.91Q61.08 4.86 61.32 4.86L61.32 4.86L61.32 4.86Q61.64 4.86 61.89 5.19L61.89 5.19L61.89 5.19Q62.15 5.53 62.27 6.15L62.27 6.15L62.27 6.15Q61.84 6.10 61.56 6.09L61.56 6.09L61.56 6.09Q61.29 6.08 61.08 6.08L61.08 6.08L61.08 6.08Q60.31 6.08 59.67 6.15L59.67 6.15L59.67 6.15Q59.04 6.23 58.45 6.31L58.45 6.31L58.45 6.31Q58.37 6.44 58.26 6.64L58.26 6.64L58.26 6.64Q58.16 6.83 57.99 7.18L57.99 7.18L57.99 7.18Q57.82 7.53 57.57 8.06L57.57 8.06L57.57 8.06Q57.33 8.60 56.98 9.39L56.98 9.39L56.98 9.39Q57.51 9.31 57.98 9.26L57.98 9.26L57.98 9.26Q58.45 9.21 58.77 9.21ZM68.85 15.71L68.85 15.71L68.85 15.71Q68.63 15.68 68.38 15.52L68.38 15.52L68.38 15.52Q68.14 15.36 68.07 15.16L68.07 15.16L68.07 15.16Q68.07 14.99 68.12 14.73L68.12 14.73L68.12 14.73Q68.17 14.46 68.24 14.19L68.24 14.19L68.24 14.19Q68.31 13.92 68.38 13.67L68.38 13.67L68.38 13.67Q68.45 13.43 68.47 13.30L68.47 13.30L68.47 13.30Q68.64 13.30 68.90 13.38L68.90 13.38L68.90 13.38Q69.16 13.47 69.43 13.62L69.43 13.62L69.43 13.62Q69.71 13.76 69.95 13.95L69.95 13.95L69.95 13.95Q70.20 14.14 70.32 14.34L70.32 14.34L70.32 14.34Q70.20 14.62 70.00 14.87L70.00 14.87L70.00 14.87Q69.80 15.12 69.59 15.31L69.59 15.31L69.59 15.31Q69.37 15.50 69.17 15.60L69.17 15.60L69.17 15.60Q68.98 15.71 68.85 15.71ZM84.14 4.83L84.14 4.83L84.14 4.83Q84.67 4.83 85.25 5.03L85.25 5.03L85.25 5.03Q85.82 5.22 86.25 5.53L86.25 5.53L86.25 5.53Q86.11 6.24 85.99 6.82L85.99 6.82L85.99 6.82Q85.88 7.39 85.78 7.86L85.78 7.86L85.78 7.86Q85.68 8.33 85.59 8.71L85.59 8.71L85.59 8.71Q85.50 9.10 85.41 9.44L85.41 9.44L85.41 9.44Q85.08 10.70 84.72 11.71L84.72 11.71L84.72 11.71Q84.36 12.73 83.96 13.54L83.96 13.54L83.96 13.54Q83.57 14.35 83.12 14.98L83.12 14.98L83.12 14.98Q82.68 15.61 82.18 16.09L82.18 16.09L82.18 16.09Q81.69 16.55 81.20 16.84L81.20 16.84L81.20 16.84Q80.71 17.14 80.29 17.22L80.29 17.22L80.29 17.22Q79.73 17.22 79.25 17.09L79.25 17.09L79.25 17.09Q78.78 16.97 78.43 16.75L78.43 16.75L78.43 16.75Q78.09 16.53 77.90 16.23L77.90 16.23L77.90 16.23Q77.71 15.93 77.71 15.57L77.71 15.57L77.71 15.57Q77.71 15.18 77.91 14.58L77.91 14.58L77.91 14.58Q78.11 13.99 78.51 13.17L78.51 13.17L78.51 13.17Q78.68 13.19 78.90 13.26L78.90 13.26L78.90 13.26Q79.13 13.33 79.35 13.43L79.35 13.43L79.35 13.43Q79.58 13.52 79.76 13.64L79.76 13.64L79.76 13.64Q79.94 13.76 80.02 13.87L80.02 13.87L80.02 13.87Q79.58 14.34 79.30 14.89L79.30 14.89L79.30 14.89Q79.02 15.44 79.02 15.85L79.02 15.85L79.02 15.85Q79.02 16.09 79.11 16.27L79.11 16.27L79.11 16.27Q79.20 16.46 79.42 16.62L79.42 16.62L79.42 16.62Q80.28 16.30 81.09 15.42L81.09 15.42L81.09 15.42Q81.90 14.55 82.53 13.24L82.53 13.24L82.53 13.24Q82.91 12.47 83.22 11.48L83.22 11.48L83.22 11.48Q83.52 10.49 83.74 9.48L83.74 9.48L83.74 9.48Q83.96 8.48 84.08 7.57L84.08 7.57L84.08 7.57Q84.20 6.65 84.20 6.02L84.20 6.02L84.20 6.02Q84.20 5.92 84.19 5.75L84.19 5.75L84.19 5.75Q84.18 5.57 84.17 5.38L84.17 5.38L84.17 5.38Q84.17 5.19 84.15 5.04L84.15 5.04L84.15 5.04Q84.14 4.89 84.14 4.83ZM102.19 5.74L102.19 5.74L102.19 5.74Q102.23 5.98 102.25 6.07L102.25 6.07L102.25 6.07Q102.27 6.16 102.27 6.31L102.27 6.31L102.27 6.31Q102.27 6.78 102.07 7.18L102.07 7.18L102.07 7.18Q101.86 7.57 101.51 7.74L101.51 7.74L101.51 7.74Q101.23 7.36 100.83 7.09L100.83 7.09L100.83 7.09Q100.42 6.82 99.94 6.64L99.94 6.64L99.94 6.64Q99.46 6.47 98.94 6.38L98.94 6.38L98.94 6.38Q98.42 6.30 97.93 6.30L97.93 6.30L97.93 6.30Q97.44 6.30 97.01 6.38L97.01 6.38L97.01 6.38Q96.59 6.45 96.26 6.59L96.26 6.59L96.26 6.59Q95.93 6.72 95.74 6.92L95.74 6.92L95.74 6.92Q95.55 7.11 95.55 7.36L95.55 7.36L95.55 7.36Q95.59 7.67 95.93 7.99L95.93 7.99L95.93 7.99Q96.26 8.30 96.75 8.60L96.75 8.60L96.75 8.60Q97.24 8.90 97.84 9.20L97.84 9.20L97.84 9.20Q98.43 9.49 99.01 9.76L99.01 9.76L99.01 9.76Q99.72 10.09 100.24 10.38L100.24 10.38L100.24 10.38Q100.76 10.67 101.09 11.01L101.09 11.01L101.09 11.01Q101.43 11.35 101.60 11.79L101.60 11.79L101.60 11.79Q101.77 12.22 101.77 12.84L101.77 12.84L101.77 12.84Q101.77 13.55 101.53 14.18L101.53 14.18L101.53 14.18Q101.29 14.80 100.83 15.26L100.83 15.26L100.83 15.26Q100.38 15.72 99.74 15.98L99.74 15.98L99.74 15.98Q99.09 16.24 98.29 16.24L98.29 16.24L98.29 16.24Q97.51 16.24 96.60 16.00L96.60 16.00L96.60 16.00Q95.69 15.76 94.90 15.35L94.90 15.35L94.90 15.35Q94.11 14.94 93.58 14.40L93.58 14.40L93.58 14.40Q93.06 13.86 93.06 13.26L93.06 13.26L93.06 13.26Q93.06 12.98 93.22 12.54L93.22 12.54L93.22 12.54Q93.38 12.11 93.80 11.63L93.80 11.63L93.80 11.63Q93.84 12.05 94.25 12.63L94.25 12.63L94.25 12.63Q94.67 13.20 95.49 13.69L95.49 13.69L95.49 13.69Q96.26 14.14 97.08 14.34L97.08 14.34L97.08 14.34Q97.90 14.55 98.62 14.55L98.62 14.55L98.62 14.55Q99.40 14.55 99.89 14.35L99.89 14.35L99.89 14.35Q100.38 14.15 100.66 13.88L100.66 13.88L100.66 13.88Q100.94 13.61 101.05 13.33L101.05 13.33L101.05 13.33Q101.16 13.05 101.18 12.88L101.18 12.88L101.18 12.88Q101.16 12.60 100.92 12.34L100.92 12.34L100.92 12.34Q100.67 12.08 100.26 11.84L100.26 11.84L100.26 11.84Q99.85 11.59 99.30 11.34L99.30 11.34L99.30 11.34Q98.76 11.09 98.17 10.84L98.17 10.84L98.17 10.84Q97.29 10.44 96.65 10.10L96.65 10.10L96.65 10.10Q96.01 9.76 95.60 9.40L95.60 9.40L95.60 9.40Q95.19 9.04 95.00 8.65L95.00 8.65L95.00 8.65Q94.81 8.26 94.81 7.76L94.81 7.76L94.81 7.76Q94.81 6.97 95.28 6.27L95.28 6.27L95.28 6.27Q95.76 5.57 96.66 5.21L96.66 5.21L96.66 5.21Q97.10 5.01 97.61 4.93L97.61 4.93L97.61 4.93Q98.13 4.84 98.62 4.84L98.62 4.84L98.62 4.84Q99.54 4.84 100.42 5.10L100.42 5.10L100.42 5.10Q101.30 5.35 102.19 5.74ZM126.08 9.34L126.08 9.34L126.08 9.34Q126.53 9.34 126.79 9.59L126.79 9.59L126.79 9.59Q127.05 9.84 127.05 10.29L127.05 10.29L127.05 10.29Q127.05 10.40 127.04 10.52L127.04 10.52L127.04 10.52Q127.02 10.64 126.98 10.72L126.98 10.72L126.98 10.72Q126.80 10.70 126.57 10.68L126.57 10.68L126.57 10.68Q126.35 10.65 126.04 10.65L126.04 10.65L126.04 10.65Q125.41 10.65 124.78 10.77L124.78 10.77L124.78 10.77Q124.15 10.88 123.58 10.95L123.58 10.95L123.58 10.95Q122.95 12.43 122.54 13.73L122.54 13.73L122.54 13.73Q122.14 15.04 121.91 16.31L121.91 16.31L121.91 16.31Q121.44 16.20 121.07 15.90L121.07 15.90L121.07 15.90Q120.71 15.61 120.39 15.08L120.39 15.08L120.39 15.08Q120.48 14.85 120.62 14.54L120.62 14.54L120.62 14.54Q120.76 14.22 120.96 13.74L120.96 13.74L120.96 13.74Q121.16 13.26 121.43 12.56L121.43 12.56L121.43 12.56Q121.70 11.87 122.08 10.91L122.08 10.91L122.08 10.91Q121.49 10.71 121.31 10.22L121.31 10.22L121.31 10.22Q121.38 10.15 121.70 10.06L121.70 10.06L121.70 10.06Q122.02 9.97 122.49 9.86L122.49 9.86L122.49 9.86Q122.70 9.31 122.85 8.88L122.85 8.88L122.85 8.88Q123.00 8.46 123.13 8.07L123.13 8.07L123.13 8.07Q123.26 7.69 123.36 7.32L123.36 7.32L123.36 7.32Q123.47 6.94 123.55 6.52L123.55 6.52L123.48 6.52L123.48 6.52Q122.95 6.52 122.62 6.27L122.62 6.27L122.62 6.27Q122.29 6.02 122.29 5.61L122.29 5.61L122.29 5.61Q122.29 5.50 122.32 5.35L122.32 5.35L122.32 5.35Q122.36 5.19 122.42 5.08L122.42 5.08L122.42 5.08Q122.68 5.12 122.94 5.14L122.94 5.14L122.94 5.14Q123.20 5.15 123.62 5.15L123.62 5.15L123.62 5.15Q124.50 5.15 125.27 5.10L125.27 5.10L125.27 5.10Q126.04 5.05 126.66 5.00L126.66 5.00L126.66 5.00Q127.29 4.94 127.74 4.89L127.74 4.89L127.74 4.89Q128.18 4.84 128.42 4.84L128.42 4.84L128.42 4.84Q128.74 4.84 129.00 5.18L129.00 5.18L129.00 5.18Q129.25 5.52 129.39 6.13L129.39 6.13L129.39 6.13Q128.94 6.09 128.67 6.08L128.67 6.08L128.67 6.08Q128.39 6.06 128.18 6.06L128.18 6.06L128.18 6.06Q127.47 6.06 126.87 6.13L126.87 6.13L126.87 6.13Q126.28 6.19 125.75 6.27L125.75 6.27L125.75 6.27Q125.66 6.40 125.56 6.59L125.56 6.59L125.56 6.59Q125.45 6.79 125.29 7.15L125.29 7.15L125.29 7.15Q125.12 7.50 124.86 8.08L124.86 8.08L124.86 8.08Q124.60 8.65 124.21 9.53L124.21 9.53L124.21 9.53Q124.75 9.45 125.25 9.39L125.25 9.39L125.25 9.39Q125.75 9.34 126.08 9.34ZM134.30 14.90L134.30 14.90L134.30 14.90Q134.37 14.49 134.55 13.82L134.55 13.82L134.55 13.82Q134.72 13.16 134.96 12.41L134.96 12.41L134.96 12.41Q135.20 11.66 135.46 10.91L135.46 10.91L135.46 10.91Q135.73 10.15 135.98 9.55L135.98 9.55L135.98 9.55Q136.16 9.11 136.30 8.87L136.30 8.87L136.30 8.87Q136.44 8.62 136.61 8.46L136.61 8.46L136.61 8.46Q136.81 8.48 137.02 8.55L137.02 8.55L137.02 8.55Q137.23 8.62 137.42 8.72L137.42 8.72L137.42 8.72Q137.62 8.82 137.77 8.93L137.77 8.93L137.77 8.93Q137.93 9.03 138.01 9.13L138.01 9.13L138.01 9.13Q137.63 9.58 137.35 10.15L137.35 10.15L137.35 10.15Q137.06 10.72 136.77 11.62L136.77 11.62L136.77 11.62Q137.52 10.95 138.10 10.33L138.10 10.33L138.10 10.33Q138.68 9.72 139.19 8.96L139.19 8.96L139.19 8.96Q139.27 8.89 139.48 8.89L139.48 8.89L139.48 8.89Q139.68 8.89 139.86 8.95L139.86 8.95L139.86 8.95Q140.04 9.02 140.11 9.13L140.11 9.13L140.11 9.13Q139.86 9.80 139.86 10.46L139.86 10.46L139.86 10.46Q139.86 11.07 140.04 11.38L140.04 11.38L140.04 11.38Q140.03 11.47 139.85 11.70L139.85 11.70L139.85 11.70Q139.68 11.94 139.47 12.15L139.47 12.15L139.47 12.15Q139.09 11.96 138.80 11.61L138.80 11.61L138.80 11.61Q138.50 11.27 138.36 10.86L138.36 10.86L138.36 10.86Q137.70 11.33 137.24 11.77L137.24 11.77L137.24 11.77Q136.78 12.21 136.45 12.75L136.45 12.75L136.45 12.75Q136.12 13.29 135.89 13.99L135.89 13.99L135.89 13.99Q135.66 14.69 135.45 15.65L135.45 15.65L135.45 15.65Q135.32 15.64 135.15 15.56L135.15 15.56L135.15 15.56Q134.97 15.48 134.80 15.37L134.80 15.37L134.80 15.37Q134.62 15.26 134.48 15.13L134.48 15.13L134.48 15.13Q134.34 15.01 134.30 14.90ZM152.11 9.52L152.11 9.52L152.11 9.52Q152.25 9.52 152.44 9.57L152.44 9.57L152.44 9.57Q152.63 9.62 152.78 9.70L152.78 9.70L152.78 9.70Q152.94 9.77 153.04 9.86L153.04 9.86L153.04 9.86Q153.15 9.94 153.15 10.01L153.15 10.01L153.15 10.01Q152.87 10.60 152.63 11.19L152.63 11.19L152.63 11.19Q152.39 11.79 152.22 12.33L152.22 12.33L152.22 12.33Q152.05 12.88 151.96 13.36L151.96 13.36L151.96 13.36Q151.87 13.83 151.87 14.18L151.87 14.18L151.87 14.18Q151.87 14.57 151.96 14.83L151.96 14.83L151.96 14.83Q152.04 15.09 152.24 15.20L152.24 15.20L152.24 15.20Q152.07 15.32 151.80 15.39L151.80 15.39L151.80 15.39Q151.54 15.46 151.33 15.46L151.33 15.46L151.33 15.46Q150.57 15.46 150.57 14.42L150.57 14.42L150.57 14.42Q150.57 13.62 151.10 12.24L151.10 12.24L151.10 12.24Q150.82 12.88 150.46 13.45L150.46 13.45L150.46 13.45Q150.09 14.01 149.72 14.45L149.72 14.45L149.72 14.45Q149.34 14.88 148.95 15.15L148.95 15.15L148.95 15.15Q148.57 15.43 148.25 15.48L148.25 15.48L148.25 15.48Q147.73 15.46 147.41 14.99L147.41 14.99L147.41 14.99Q147.08 14.52 147.08 13.79L147.08 13.79L147.08 13.79Q147.08 13.01 147.42 12.14L147.42 12.14L147.42 12.14Q147.76 11.27 148.28 10.53L148.28 10.53L148.28 10.53Q148.81 9.79 149.42 9.29L149.42 9.29L149.42 9.29Q150.04 8.79 150.61 8.76L150.61 8.76L150.61 8.76Q150.75 8.81 150.93 8.93L150.93 8.93L150.93 8.93Q151.10 9.06 151.26 9.23L151.26 9.23L151.26 9.23Q151.42 9.39 151.54 9.57L151.54 9.57L151.54 9.57Q151.65 9.74 151.66 9.87L151.66 9.87L151.66 9.87Q151.10 9.95 150.51 10.42L150.51 10.42L150.51 10.42Q149.91 10.88 149.43 11.53L149.43 11.53L149.43 11.53Q148.95 12.18 148.64 12.92L148.64 12.92L148.64 12.92Q148.33 13.66 148.33 14.31L148.33 14.31L148.33 14.31Q148.33 14.57 148.53 14.64L148.53 14.64L148.53 14.64Q148.93 14.56 149.46 13.95L149.46 13.95L149.46 13.95Q150.00 13.34 150.75 12.07L150.75 12.07L150.75 12.07Q150.89 11.82 151.07 11.51L151.07 11.51L151.07 11.51Q151.24 11.20 151.42 10.86L151.42 10.86L151.42 10.86Q151.61 10.53 151.78 10.18L151.78 10.18L151.78 10.18Q151.96 9.84 152.11 9.52ZM168.95 10.88L168.95 10.88L168.95 10.88Q168.73 10.89 168.41 11.16L168.41 11.16L168.41 11.16Q168.08 11.44 167.71 11.87L167.71 11.87L167.71 11.87Q167.34 12.29 166.94 12.81L166.94 12.81L166.94 12.81Q166.54 13.33 166.17 13.84L166.17 13.84L166.17 13.84Q165.80 14.35 165.48 14.80L165.48 14.80L165.48 14.80Q165.16 15.25 164.93 15.51L164.93 15.51L164.93 15.51Q164.63 15.39 164.40 15.14L164.40 15.14L164.40 15.14Q164.18 14.90 164.08 14.53L164.08 14.53L164.08 14.53Q164.15 14.10 164.28 13.63L164.28 13.63L164.28 13.63Q164.40 13.16 164.60 12.66L164.60 12.66L164.60 12.66Q164.81 12.15 165.11 11.60L165.11 11.60L165.11 11.60Q165.41 11.05 165.84 10.43L165.84 10.43L165.84 10.43Q165.63 10.44 165.27 10.73L165.27 10.73L165.27 10.73Q164.91 11.02 164.49 11.47L164.49 11.47L164.49 11.47Q164.07 11.93 163.62 12.50L163.62 12.50L163.62 12.50Q163.17 13.06 162.78 13.61L162.78 13.61L162.78 13.61Q162.26 14.34 161.92 14.88L161.92 14.88L161.92 14.88Q161.57 15.43 161.42 15.53L161.42 15.53L161.42 15.53Q161.06 15.26 160.92 14.95L160.92 14.95L160.92 14.95Q160.78 14.64 160.71 14.27L160.71 14.27L160.71 14.27Q160.72 13.93 160.81 13.43L160.81 13.43L160.81 13.43Q160.90 12.92 161.07 12.39L161.07 12.39L161.07 12.39Q161.39 11.37 161.90 10.36L161.90 10.36L161.90 10.36Q162.41 9.35 162.89 8.51L162.89 8.51L162.89 8.51Q163.28 8.60 163.60 8.78L163.60 8.78L163.60 8.78Q163.91 8.96 164.26 9.31L164.26 9.31L164.26 9.31Q164.12 9.74 163.83 10.23L163.83 10.23L163.83 10.23Q163.53 10.71 163.21 11.24L163.21 11.24L163.21 11.24Q162.89 11.77 162.62 12.33L162.62 12.33L162.62 12.33Q162.36 12.89 162.27 13.47L162.27 13.47L162.27 13.47Q162.67 12.91 163.20 12.18L163.20 12.18L163.20 12.18Q163.74 11.45 164.31 10.81L164.31 10.81L164.31 10.81Q164.88 10.16 165.44 9.72L165.44 9.72L165.44 9.72Q166.00 9.27 166.45 9.27L166.45 9.27L166.45 9.27Q166.61 9.27 166.81 9.32L166.81 9.32L166.81 9.32Q167.01 9.38 167.17 9.46L167.17 9.46L167.17 9.46Q167.34 9.55 167.45 9.63L167.45 9.63L167.45 9.63Q167.57 9.70 167.58 9.74L167.58 9.74L167.58 9.74Q167.51 10.02 167.25 10.51L167.25 10.51L167.25 10.51Q166.99 10.99 166.70 11.52L166.70 11.52L166.70 11.52Q166.40 12.05 166.15 12.55L166.15 12.55L166.15 12.55Q165.90 13.05 165.86 13.34L165.86 13.34L165.86 13.34Q166.54 12.40 167.15 11.64L167.15 11.64L167.15 11.64Q167.75 10.88 168.28 10.33L168.28 10.33L168.28 10.33Q168.81 9.79 169.27 9.49L169.27 9.49L169.27 9.49Q169.72 9.20 170.13 9.20L170.13 9.20L170.13 9.20Q170.41 9.20 170.65 9.34L170.65 9.34L170.65 9.34Q170.90 9.49 171.00 9.77L171.00 9.77L171.00 9.77Q170.87 10.19 170.58 10.78L170.58 10.78L170.58 10.78Q170.30 11.37 170.00 12.02L170.00 12.02L170.00 12.02Q169.71 12.67 169.48 13.30L169.48 13.30L169.48 13.30Q169.25 13.93 169.25 14.43L169.25 14.43L169.25 14.43Q169.25 14.73 169.33 14.82L169.33 14.82L169.33 14.82Q169.41 14.91 169.57 14.91L169.57 14.91L169.57 14.91Q169.74 14.91 169.88 14.85L169.88 14.85L169.88 14.85Q170.03 14.78 170.10 14.78L170.10 14.78L170.10 14.78Q170.18 14.84 170.20 14.92L170.20 14.92L170.20 14.92Q170.21 15.01 170.21 15.08L170.21 15.08L170.21 15.08Q169.93 15.30 169.64 15.45L169.64 15.45L169.64 15.45Q169.34 15.60 168.98 15.60L168.98 15.60L168.98 15.60Q168.64 15.60 168.43 15.48L168.43 15.48L168.43 15.48Q168.21 15.37 168.07 15.18L168.07 15.18L168.07 15.18Q167.93 14.98 167.87 14.73L167.87 14.73L167.87 14.73Q167.82 14.48 167.82 14.18L167.82 14.18L167.82 14.18Q167.82 13.71 167.94 13.24L167.94 13.24L167.94 13.24Q168.07 12.77 168.24 12.34L168.24 12.34L168.24 12.34Q168.42 11.91 168.62 11.54L168.62 11.54L168.62 11.54Q168.81 11.17 168.95 10.88ZM183.58 9.38L183.58 9.38L183.58 9.38Q183.53 10.25 183.27 10.87L183.27 10.87L183.27 10.87Q183.02 11.49 182.55 11.96L182.55 11.96L182.55 11.96Q182.08 12.43 181.41 12.81L181.41 12.81L181.41 12.81Q180.74 13.19 179.84 13.54L179.84 13.54L179.84 13.54Q179.84 13.62 179.84 13.71L179.84 13.71L179.84 13.71Q179.83 13.80 179.83 13.90L179.83 13.90L179.83 13.90Q179.83 14.08 179.86 14.28L179.86 14.28L179.86 14.28Q179.89 14.48 179.96 14.64L179.96 14.64L179.96 14.64Q180.03 14.81 180.15 14.92L180.15 14.92L180.15 14.92Q180.28 15.02 180.47 15.02L180.47 15.02L180.47 15.02Q180.85 15.02 181.22 14.85L181.22 14.85L181.22 14.85Q181.58 14.69 181.91 14.44L181.91 14.44L181.91 14.44Q182.24 14.20 182.52 13.91L182.52 13.91L182.52 13.91Q182.81 13.62 183.04 13.38L183.04 13.38L183.04 13.38Q183.18 13.51 183.27 13.62L183.27 13.62L183.27 13.62Q182.64 14.46 181.89 15.02L181.89 15.02L181.89 15.02Q181.15 15.57 180.47 15.72L180.47 15.72L180.47 15.72Q179.51 15.61 178.97 15.02L178.97 15.02L178.97 15.02Q178.43 14.42 178.43 13.58L178.43 13.58L178.43 13.58Q178.43 13.01 178.59 12.41L178.59 12.41L178.59 12.41Q178.75 11.82 179.04 11.26L179.04 11.26L179.04 11.26Q179.33 10.71 179.71 10.22L179.71 10.22L179.71 10.22Q180.10 9.73 180.54 9.37L180.54 9.37L180.54 9.37Q180.98 9.00 181.45 8.79L181.45 8.79L181.45 8.79Q181.92 8.58 182.38 8.58L182.38 8.58L182.38 8.58Q183.02 8.67 183.58 9.38ZM182.62 9.84L182.62 9.84L182.62 9.84Q182.24 9.90 181.83 10.15L181.83 10.15L181.83 10.15Q181.43 10.40 181.07 10.82L181.07 10.82L181.07 10.82Q180.71 11.24 180.42 11.80L180.42 11.80L180.42 11.80Q180.12 12.36 179.96 13.01L179.96 13.01L179.96 13.01Q181.08 12.45 181.82 11.63L181.82 11.63L181.82 11.63Q182.56 10.81 182.62 9.84ZM191.35 14.60L191.35 14.60L191.35 14.60Q191.35 14.32 191.41 13.82L191.41 13.82L191.41 13.82Q191.48 13.31 191.58 12.73L191.58 12.73L191.58 12.73Q191.69 12.14 191.82 11.52L191.82 11.52L191.82 11.52Q191.95 10.91 192.09 10.42L192.09 10.42L192.09 10.42Q192.28 9.76 192.66 9.40L192.66 9.40L192.66 9.40Q193.05 9.04 193.62 9.04L193.62 9.04L193.62 9.04Q193.93 9.04 194.23 9.14L194.23 9.14L194.23 9.14Q194.53 9.24 194.59 9.39L194.59 9.39L194.59 9.39Q194.18 9.73 193.94 10.23L193.94 10.23L193.94 10.23Q193.69 10.72 193.54 11.29L193.54 11.29L193.54 11.29Q193.40 11.86 193.32 12.45L193.32 12.45L193.32 12.45Q193.24 13.05 193.16 13.57L193.16 13.57L193.16 13.57Q193.62 12.95 194.03 12.45L194.03 12.45L194.03 12.45Q194.45 11.96 194.77 11.66L194.77 11.66L194.77 11.66Q195.20 11.26 195.36 10.98L195.36 10.98L195.36 10.98Q195.51 10.71 195.62 10.39L195.62 10.39L195.62 10.39Q195.71 10.14 195.82 9.80L195.82 9.80L195.82 9.80Q195.94 9.46 196.22 9.18L196.22 9.18L196.22 9.18Q196.28 9.17 196.46 9.17L196.46 9.17L196.46 9.17Q196.60 9.17 196.76 9.18L196.76 9.18L196.76 9.18Q196.92 9.20 197.06 9.24L197.06 9.24L197.06 9.24Q197.20 9.28 197.30 9.34L197.30 9.34L197.30 9.34Q197.40 9.39 197.41 9.48L197.41 9.48L197.41 9.48Q197.19 9.77 196.99 10.39L196.99 10.39L196.99 10.39Q196.80 11.02 196.64 11.76L196.64 11.76L196.64 11.76Q196.49 12.50 196.36 13.24L196.36 13.24L196.36 13.24Q196.24 13.97 196.14 14.48L196.14 14.48L196.14 14.48Q196.20 14.45 196.39 14.25L196.39 14.25L196.39 14.25Q196.59 14.06 196.83 13.76L196.83 13.76L196.83 13.76Q197.08 13.47 197.35 13.12L197.35 13.12L197.35 13.12Q197.62 12.77 197.83 12.43L197.83 12.43L197.83 12.43Q198.10 12.03 198.28 11.67L198.28 11.67L198.28 11.67Q198.45 11.31 198.58 10.91L198.58 10.91L198.58 10.91Q198.72 10.50 198.83 10.00L198.83 10.00L198.83 10.00Q198.94 9.51 199.07 8.82L199.07 8.82L199.07 8.82Q199.15 8.71 199.44 8.63L199.44 8.63L199.44 8.63Q199.72 8.55 199.96 8.55L199.96 8.55L199.96 8.55Q200.17 8.55 200.27 8.62L200.27 8.62L200.27 8.62Q200.20 9.41 200.01 10.02L200.01 10.02L200.01 10.02Q199.82 10.64 199.50 11.22L199.50 11.22L199.50 11.22Q199.18 11.80 198.70 12.38L198.70 12.38L198.70 12.38Q198.23 12.96 197.58 13.65L197.58 13.65L197.58 13.65Q197.32 13.93 197.00 14.27L197.00 14.27L197.00 14.27Q196.69 14.60 196.38 14.89L196.38 14.89L196.38 14.89Q196.08 15.18 195.82 15.37L195.82 15.37L195.82 15.37Q195.57 15.57 195.43 15.57L195.43 15.57L195.43 15.57Q195.10 15.57 194.89 15.32L194.89 15.32L194.89 15.32Q194.68 15.06 194.68 14.67L194.68 14.67L194.68 14.67Q194.68 14.27 194.72 13.96L194.72 13.96L194.72 13.96Q194.75 13.66 194.84 13.33L194.84 13.33L194.84 13.33Q194.92 13.02 194.97 12.81L194.97 12.81L194.97 12.81Q195.02 12.60 195.06 12.45L195.06 12.45L195.06 12.45Q195.09 12.29 195.10 12.18L195.10 12.18L195.10 12.18Q195.12 12.07 195.13 11.96L195.13 11.96L195.13 11.96Q195.02 12.01 194.84 12.19L194.84 12.19L194.84 12.19Q194.66 12.36 194.46 12.59L194.46 12.59L194.46 12.59Q194.26 12.82 194.07 13.06L194.07 13.06L194.07 13.06Q193.87 13.30 193.75 13.47L193.75 13.47L193.75 13.47Q193.48 13.83 193.28 14.11L193.28 14.11L193.28 14.11Q193.09 14.39 192.91 14.64L192.91 14.64L192.91 14.64Q192.74 14.90 192.57 15.15L192.57 15.15L192.57 15.15Q192.40 15.41 192.18 15.71L192.18 15.71L192.18 15.71Q191.73 15.57 191.54 15.29L191.54 15.29L191.54 15.29Q191.35 15.01 191.35 14.60ZM208.77 15.67L208.77 15.67L208.77 15.67Q207.97 15.58 207.49 14.97L207.49 14.97L207.49 14.97Q207.02 14.35 207.02 13.40L207.02 13.40L207.02 13.40Q207.02 12.84 207.19 12.24L207.19 12.24L207.19 12.24Q207.35 11.63 207.66 11.07L207.66 11.07L207.66 11.07Q207.97 10.50 208.39 10.00L208.39 10.00L208.39 10.00Q208.81 9.49 209.30 9.13L209.30 9.13L209.30 9.13Q210.07 8.55 210.74 8.55L210.74 8.55L210.74 8.55Q211.19 8.79 211.62 9.55L211.62 9.55L211.62 9.55Q211.69 9.55 211.75 9.54L211.75 9.54L211.75 9.54Q211.81 9.53 211.88 9.53L211.88 9.53L211.88 9.53Q212.62 9.53 212.62 10.85L212.62 10.85L212.62 10.85Q212.62 11.73 212.33 12.52L212.33 12.52L212.33 12.52Q212.04 13.31 211.53 13.96L211.53 13.96L211.53 13.96Q211.02 14.60 210.31 15.04L210.31 15.04L210.31 15.04Q209.61 15.48 208.77 15.67ZM209.48 11.26L209.48 11.26L209.48 11.26Q209.24 11.58 209.03 11.96L209.03 11.96L209.03 11.96Q208.82 12.33 208.67 12.72L208.67 12.72L208.67 12.72Q208.52 13.10 208.43 13.46L208.43 13.46L208.43 13.46Q208.35 13.82 208.35 14.10L208.35 14.10L208.35 14.10Q208.35 14.43 208.46 14.74L208.46 14.74L208.46 14.74Q208.57 15.05 208.71 15.09L208.71 15.09L208.71 15.09Q209.34 14.95 209.87 14.57L209.87 14.57L209.87 14.57Q210.39 14.18 210.78 13.61L210.78 13.61L210.78 13.61Q211.16 13.03 211.38 12.31L211.38 12.31L211.38 12.31Q211.60 11.58 211.60 10.75L211.60 10.75L211.60 10.75Q211.60 10.39 211.55 10.18L211.55 10.18L211.55 10.18Q211.51 9.97 211.41 9.81L211.41 9.81L211.41 9.81Q210.80 10.00 210.31 10.40L210.31 10.40L210.31 10.40Q209.83 10.81 209.48 11.26ZM219.95 14.90L219.95 14.90L219.95 14.90Q220.02 14.49 220.20 13.82L220.20 13.82L220.20 13.82Q220.37 13.16 220.61 12.41L220.61 12.41L220.61 12.41Q220.85 11.66 221.12 10.91L221.12 10.91L221.12 10.91Q221.38 10.15 221.63 9.55L221.63 9.55L221.63 9.55Q221.82 9.11 221.96 8.87L221.96 8.87L221.96 8.87Q222.10 8.62 222.26 8.46L222.26 8.46L222.26 8.46Q222.46 8.48 222.67 8.55L222.67 8.55L222.67 8.55Q222.88 8.62 223.08 8.72L223.08 8.72L223.08 8.72Q223.27 8.82 223.43 8.93L223.43 8.93L223.43 8.93Q223.58 9.03 223.66 9.13L223.66 9.13L223.66 9.13Q223.29 9.58 223.00 10.15L223.00 10.15L223.00 10.15Q222.71 10.72 222.42 11.62L222.42 11.62L222.42 11.62Q223.17 10.95 223.75 10.33L223.75 10.33L223.75 10.33Q224.34 9.72 224.84 8.96L224.84 8.96L224.84 8.96Q224.92 8.89 225.13 8.89L225.13 8.89L225.13 8.89Q225.33 8.89 225.51 8.95L225.51 8.95L225.51 8.95Q225.69 9.02 225.76 9.13L225.76 9.13L225.76 9.13Q225.51 9.80 225.51 10.46L225.51 10.46L225.51 10.46Q225.51 11.07 225.69 11.38L225.69 11.38L225.69 11.38Q225.68 11.47 225.50 11.70L225.50 11.70L225.50 11.70Q225.33 11.94 225.12 12.15L225.12 12.15L225.12 12.15Q224.74 11.96 224.45 11.61L224.45 11.61L224.45 11.61Q224.15 11.27 224.01 10.86L224.01 10.86L224.01 10.86Q223.36 11.33 222.89 11.77L222.89 11.77L222.89 11.77Q222.43 12.21 222.10 12.75L222.10 12.75L222.10 12.75Q221.77 13.29 221.54 13.99L221.54 13.99L221.54 13.99Q221.31 14.69 221.10 15.65L221.10 15.65L221.10 15.65Q220.98 15.64 220.80 15.56L220.80 15.56L220.80 15.56Q220.63 15.48 220.45 15.37L220.45 15.37L220.45 15.37Q220.28 15.26 220.14 15.13L220.14 15.13L220.14 15.13Q220.00 15.01 219.95 14.90ZM232.96 13.86L232.96 13.86L232.96 13.86Q232.96 13.36 233.22 12.46L233.22 12.46L233.22 12.46Q233.48 11.56 233.90 10.50L233.90 10.50L233.90 10.50Q234.32 9.44 234.85 8.30L234.85 8.30L234.85 8.30Q235.38 7.17 235.92 6.19L235.92 6.19L235.92 6.19Q236.46 5.21 236.96 4.49L236.96 4.49L236.96 4.49Q237.45 3.78 237.80 3.53L237.80 3.53L237.80 3.53Q238.00 3.54 238.23 3.70L238.23 3.70L238.23 3.70Q238.46 3.85 238.66 4.07L238.66 4.07L238.66 4.07Q238.85 4.28 238.99 4.52L238.99 4.52L238.99 4.52Q239.12 4.76 239.12 4.96L239.12 4.96L239.12 4.96Q238.49 5.46 237.84 6.25L237.84 6.25L237.84 6.25Q237.19 7.04 236.60 7.99L236.60 7.99L236.60 7.99Q236.01 8.93 235.51 9.99L235.51 9.99L235.51 9.99Q235.02 11.05 234.68 12.07L234.68 12.07L234.68 12.07Q235.13 11.30 235.62 10.67L235.62 10.67L235.62 10.67Q236.11 10.04 236.60 9.59L236.60 9.59L236.60 9.59Q237.09 9.14 237.56 8.90L237.56 8.90L237.56 8.90Q238.03 8.65 238.45 8.64L238.45 8.64L238.45 8.64Q239.06 9.09 239.06 9.83L239.06 9.83L239.06 9.83Q239.06 10.28 238.88 10.73L238.88 10.73L238.88 10.73Q238.70 11.19 238.40 11.57L238.40 11.57L238.40 11.57Q238.10 11.96 237.71 12.23L237.71 12.23L237.71 12.23Q237.33 12.50 236.91 12.59L236.91 12.59L236.91 12.59Q237.05 13.08 237.26 13.58L237.26 13.58L237.26 13.58Q237.48 14.08 237.78 14.56L237.78 14.56L237.78 14.56Q238.08 15.04 238.47 15.44L238.47 15.44L238.47 15.44Q238.85 15.85 239.34 16.13L239.34 16.13L239.34 16.13Q239.27 16.27 239.13 16.41L239.13 16.41L239.13 16.41Q238.99 16.55 238.80 16.65L238.80 16.65L238.80 16.65Q238.60 16.76 238.37 16.82L238.37 16.82L238.37 16.82Q238.14 16.88 237.92 16.88L237.92 16.88L237.92 16.88Q237.54 16.88 237.21 16.51L237.21 16.51L237.21 16.51Q236.88 16.13 236.61 15.41L236.61 15.41L236.61 15.41Q236.40 14.84 236.21 14.04L236.21 14.04L236.21 14.04Q236.01 13.24 235.86 12.38L235.86 12.38L235.86 12.38Q236.05 12.25 236.35 12.00L236.35 12.00L236.35 12.00Q236.64 11.76 236.96 11.44L236.96 11.44L236.96 11.44Q238.20 10.25 238.20 9.38L238.20 9.38L238.20 9.38Q238.20 9.27 238.04 9.27L238.04 9.27L238.04 9.27Q237.76 9.28 237.38 9.53L237.38 9.53L237.38 9.53Q237.01 9.79 236.58 10.23L236.58 10.23L236.58 10.23Q236.15 10.68 235.71 11.28L235.71 11.28L235.71 11.28Q235.27 11.89 234.86 12.59L234.86 12.59L234.86 12.59Q234.70 12.87 234.56 13.23L234.56 13.23L234.56 13.23Q234.42 13.59 234.31 13.98L234.31 13.98L234.31 13.98Q234.21 14.36 234.15 14.74L234.15 14.74L234.15 14.74Q234.09 15.12 234.09 15.44L234.09 15.44L234.09 15.44Q234.09 15.64 234.14 15.76L234.14 15.76L234.14 15.76Q233.70 15.72 233.60 15.54L233.60 15.54L233.60 15.54Q233.49 15.37 233.41 15.27L233.41 15.27L233.41 15.27Q233.34 15.16 233.25 15.09L233.25 15.09L233.25 15.09Q233.13 14.99 233.04 14.67L233.04 14.67L233.04 14.67Q232.96 14.35 232.96 13.86Z">
		</path>
	</g>
</svg>
